<svg width="309" height="310" viewBox="0 0 309 310" fill="none" xmlns="http://www.w3.org/2000/svg">
<g filter="url(#filter0_dd_7582_6946)">
<mask id="mask0_7582_6946" style="mask-type:alpha" maskUnits="userSpaceOnUse" x="24" y="8" width="261" height="262">
<circle cx="154.499" cy="139.329" r="130.4" fill="#C4C4C4"/>
</mask>
<g mask="url(#mask0_7582_6946)">
<circle cx="154.499" cy="139.329" r="130.4" fill="white"/>
<path d="M229.921 262.627C229.373 252.76 221.515 246.912 217.495 238.506C211.83 226.628 221.88 216.578 208.906 204.883C195.932 193.37 202.51 188.071 194.835 178.751C186.978 169.432 171.08 172.173 171.08 172.173H138.553C138.553 172.173 122.655 169.432 114.797 178.751C106.939 188.071 113.7 193.37 100.726 204.883C87.7518 216.395 97.8023 226.446 92.1375 238.506C89.7619 243.44 85.9245 247.278 83.1834 252.029C70.0264 273.409 90.1274 300.271 113.152 300.271C113.152 300.271 196.663 300.271 196.845 300.271C205.982 300.271 214.936 296.434 221.332 289.855C227.911 282.546 230.469 272.312 229.921 262.627Z" fill="#FF647C"/>
<path d="M154.633 155.91L138.918 153.352C138.918 153.352 138.918 174.001 138.918 188.437C138.918 202.325 153.537 205.614 154.633 205.98C155.73 205.797 170.166 202.508 170.166 188.62C170.166 174.184 170.166 153.534 170.166 153.534L154.633 155.91Z" fill="#F9D3B7"/>
<path d="M154.633 133.617L170.348 131.059C170.348 131.059 170.348 151.708 170.348 166.144C170.348 173.088 166.693 177.474 163.038 180.032C159.384 182.59 154.998 183.687 150.43 183.504C146.409 183.321 141.11 181.494 139.465 177.839C138.369 175.281 139.1 171.261 139.1 166.327C139.1 151.891 139.1 131.241 139.1 131.241L154.633 133.617Z" fill="#F7B7A1"/>
<path d="M125.396 126.489C125.396 126.489 125.213 123.748 119.731 122.652C114.249 121.555 112.239 140.377 122.289 142.387C132.34 144.397 131.243 130.509 125.396 126.489Z" fill="#F4C19F"/>
<path d="M176.38 136.723C176.38 136.723 177.659 134.165 183.141 135.261C188.623 136.358 183.141 154.449 173.273 152.439C163.223 150.611 169.619 138.185 176.38 136.723Z" fill="#F4C19F"/>
<path d="M143.121 172.723C127.954 169.616 118.086 154.815 121.193 139.83L125.396 118.998C128.502 103.831 143.304 93.9633 158.288 97.0698C173.456 100.176 183.323 114.978 180.217 129.962L176.014 150.794C173.09 165.961 158.288 175.829 143.121 172.723Z" fill="#F9D3B7"/>
<path d="M172.36 148.418C174.005 140.012 163.04 140.56 150.249 138.002C137.275 135.444 127.407 130.693 125.762 139.098C124.118 147.504 136.178 141.109 149.152 143.85C162.127 146.591 170.533 157.007 172.36 148.418Z" fill="#F7B7A1"/>
<path d="M190.268 128.865C182.958 118.997 187.527 119.728 186.43 109.86C185.334 99.9927 174.735 91.5868 174.735 91.5868C174.735 91.5868 184.968 83.1809 177.659 77.1506C170.349 70.9376 163.04 72.5822 163.04 72.5822C163.04 72.5822 156.279 60.1561 143.487 67.6483C132.523 74.0441 138.371 82.6327 142.756 86.4702C138.919 87.9321 130.878 91.5868 127.224 97.9826C122.29 106.571 126.493 108.399 116.077 114.612C105.661 121.007 126.675 131.058 121.011 138.733C115.346 146.408 119.183 150.793 119.183 150.793C119.183 150.793 117.904 144.398 123.752 141.657C129.599 138.916 131.792 134.347 126.675 124.845C121.742 115.525 156.644 124.114 166.146 104.927C167.426 126.307 184.42 127.403 176.197 134.164C167.974 140.926 168.157 146.042 172.542 150.793C176.928 155.545 173.273 161.027 173.273 161.027C173.273 161.027 178.573 158.468 176.197 149.149C174.187 139.829 197.577 138.733 190.268 128.865Z" fill="#081E29"/>
<path d="M135.994 127.768C135.994 127.768 141.111 129.412 146.41 126.123" stroke="#081E29" stroke-width="2.06821" stroke-miterlimit="10" stroke-linecap="round" stroke-linejoin="round"/>
<path d="M166.694 133.98C166.694 133.98 161.395 133.432 157.74 128.498" stroke="#081E29" stroke-width="2.06821" stroke-miterlimit="10" stroke-linecap="round" stroke-linejoin="round"/>
<path d="M158.653 138.001C158.47 139.097 159.201 140.194 160.298 140.559C161.394 140.742 162.49 140.011 162.856 138.914C163.039 137.818 162.308 136.722 161.211 136.356C160.115 136.173 158.836 136.904 158.653 138.001Z" fill="#081E29"/>
<path d="M137.639 133.798C137.457 134.894 138.188 135.99 139.284 136.356C140.38 136.539 141.477 135.808 141.842 134.711C142.025 133.615 141.294 132.518 140.198 132.153C139.101 131.97 138.005 132.701 137.639 133.798Z" fill="#081E29"/>
<path d="M151.346 132.154C151.346 132.154 143.853 143.667 148.787 144.58" stroke="#081E29" stroke-width="1.03411" stroke-miterlimit="10" stroke-linecap="round" stroke-linejoin="round"/>
<path d="M145.314 152.803C145.314 152.803 150.066 153.534 152.441 157.188" stroke="#081E29" stroke-width="1.03411" stroke-miterlimit="10" stroke-linecap="round" stroke-linejoin="round"/>
<path d="M148.238 153.717C148.238 153.717 150.248 160.661 152.989 157.006L148.238 153.717Z" fill="#081E29"/>
<path d="M146.411 154.631L137.274 154.448C135.812 151.524 132.523 149.879 129.051 150.61C127.955 150.793 127.041 151.341 126.31 151.89C125.031 150.793 123.386 150.428 121.559 150.793C118.818 151.341 117.173 153.9 117.356 156.458C116.991 156.458 116.625 156.458 116.26 156.641C112.422 157.554 109.864 161.392 110.777 165.047C111.691 168.884 115.529 171.077 119.366 170.163C120.097 173.635 123.752 175.828 127.406 174.914C129.782 174.366 131.609 172.722 132.34 170.529C132.889 170.529 133.62 170.529 134.168 170.346C137.092 169.615 138.919 166.874 138.188 164.133C138.188 163.767 138.005 163.402 137.822 163.036L147.873 157.92L146.411 154.631Z" fill="url(#paint0_linear_7582_6946)"/>
<path d="M132.156 262.445L146.775 230.283C146.775 230.283 151.891 228.456 153.719 220.233C155.546 212.01 158.835 208.903 162.125 206.71C164.318 205.431 161.942 201.411 153.353 212.192C157.739 202.325 163.221 202.142 162.856 200.68C162.49 199.218 157.374 199.584 151.891 207.989C155.546 199.218 162.125 197.573 161.576 195.929C160.846 193.553 151.343 198.67 148.602 207.989C149.516 198.304 157.008 196.112 156.46 193.553C155.912 190.995 145.496 198.487 143.303 212.192C142.024 207.441 146.775 202.325 144.947 201.045C143.12 199.766 135.993 212.375 139.465 226.811C132.156 237.958 119.182 254.222 119.182 254.222L132.156 262.445Z" fill="#F9C4A0"/>
<path d="M92.3199 292.78C92.3199 292.78 77.8837 284.374 86.2896 273.41C94.1473 262.994 97.6193 243.076 120.644 243.989C122.471 243.989 124.299 244.72 125.578 245.634C129.233 248.375 133.984 250.202 137.09 250.933C139.1 251.482 140.745 252.761 141.111 254.04C142.39 257.512 143.486 264.639 137.821 272.862C129.781 284.74 132.705 301.369 116.076 299.724C99.4466 298.262 92.3199 292.78 92.3199 292.78Z" fill="#FF98A8"/>
<path d="M167.974 165.23C167.974 165.23 156.644 176.56 141.111 172.54" stroke="#081E29" stroke-width="1.03411" stroke-miterlimit="10" stroke-linecap="round" stroke-linejoin="round"/>
</g>
</g>
<defs>
<filter id="filter0_dd_7582_6946" x="0.0996094" y="0.929688" width="308.799" height="308.799" filterUnits="userSpaceOnUse" color-interpolation-filters="sRGB">
<feFlood flood-opacity="0" result="BackgroundImageFix"/>
<feColorMatrix in="SourceAlpha" type="matrix" values="0 0 0 0 0 0 0 0 0 0 0 0 0 0 0 0 0 0 127 0" result="hardAlpha"/>
<feOffset dy="16"/>
<feGaussianBlur stdDeviation="12"/>
<feColorMatrix type="matrix" values="0 0 0 0 0.196487 0 0 0 0 0.196487 0 0 0 0 0.279476 0 0 0 0.08 0"/>
<feBlend mode="multiply" in2="BackgroundImageFix" result="effect1_dropShadow_7582_6946"/>
<feColorMatrix in="SourceAlpha" type="matrix" values="0 0 0 0 0 0 0 0 0 0 0 0 0 0 0 0 0 0 127 0" result="hardAlpha"/>
<feOffset dy="12"/>
<feGaussianBlur stdDeviation="6"/>
<feColorMatrix type="matrix" values="0 0 0 0 0.196487 0 0 0 0 0.196487 0 0 0 0 0.279476 0 0 0 0.08 0"/>
<feBlend mode="multiply" in2="effect1_dropShadow_7582_6946" result="effect2_dropShadow_7582_6946"/>
<feBlend mode="normal" in="SourceGraphic" in2="effect2_dropShadow_7582_6946" result="shape"/>
</filter>
<linearGradient id="paint0_linear_7582_6946" x1="110.906" y1="162.741" x2="148.29" y2="162.741" gradientUnits="userSpaceOnUse">
<stop stop-color="#FFCBD3" stop-opacity="0.72"/>
<stop offset="0.9874" stop-color="#FF98A8" stop-opacity="0.1"/>
</linearGradient>
</defs>
</svg>
