<svg width="309" height="310" viewBox="0 0 309 310" fill="none" xmlns="http://www.w3.org/2000/svg">
<g filter="url(#filter0_dd_7582_6910)">
<mask id="mask0_7582_6910" style="mask-type:alpha" maskUnits="userSpaceOnUse" x="24" y="8" width="261" height="262">
<circle cx="154.499" cy="139.329" r="130.4" fill="#C4C4C4"/>
</mask>
<g mask="url(#mask0_7582_6910)">
<circle cx="154.499" cy="139.329" r="130.4" fill="white"/>
<path d="M79.0512 261.37C79.5994 251.502 87.457 245.654 91.4772 237.248C97.1421 225.371 87.0916 215.32 100.066 203.625C113.04 192.112 106.462 186.813 114.137 177.494C121.994 168.174 137.892 170.915 137.892 170.915H170.419C170.419 170.915 186.317 168.174 194.175 177.494C202.033 186.813 195.272 192.112 208.246 203.625C221.22 215.137 211.17 225.188 216.834 237.248C219.21 242.182 223.047 246.02 225.789 250.771C238.946 272.151 218.845 299.013 195.82 299.013C195.82 299.013 112.309 299.013 112.126 299.013C96.5939 304.313 85.4469 302.303 87.6398 288.597C89.4671 278.73 78.503 271.055 79.0512 261.37Z" fill="#FF647C"/>
<path d="M154.339 154.652L170.055 152.094C170.055 152.094 170.055 172.743 170.055 187.179C170.055 201.067 155.436 204.356 154.339 204.722C153.243 204.539 138.807 201.25 138.807 187.362C138.807 172.926 138.807 152.276 138.807 152.276L154.339 154.652Z" fill="#F9D3B7"/>
<path d="M154.338 132.722L138.623 130.164C138.623 130.164 138.623 150.813 138.623 165.249C138.623 172.193 142.278 176.579 145.933 179.137C149.587 181.696 153.973 182.792 158.541 182.609C162.562 182.427 167.861 180.599 169.506 176.945C170.602 174.386 169.871 170.366 169.871 165.432C169.871 150.996 169.871 130.347 169.871 130.347L154.338 132.722Z" fill="#F7B7A1"/>
<path d="M183.577 125.231C183.577 125.231 183.76 122.49 189.242 121.394C194.724 120.297 196.734 139.119 186.684 141.129C176.633 143.139 177.73 129.251 183.577 125.231Z" fill="#F4C19F"/>
<path d="M132.594 135.464C132.594 135.464 131.315 132.905 125.832 134.002C120.35 135.098 125.832 153.189 135.7 151.179C145.751 149.352 139.355 136.925 132.594 135.464Z" fill="#F4C19F"/>
<path d="M165.851 171.463C181.018 168.356 190.886 153.555 187.779 138.57L183.576 117.738C180.47 102.571 165.668 92.7035 150.684 95.8101C135.517 98.9166 125.649 113.718 128.755 128.703L132.958 149.535C135.882 164.519 150.684 174.569 165.851 171.463Z" fill="#F9D3B7"/>
<path d="M136.613 147.158C134.969 138.752 145.933 139.301 158.724 136.742C171.699 134.184 181.566 129.433 183.211 137.839C184.856 146.245 172.795 139.849 159.821 142.59C147.212 145.148 138.441 155.747 136.613 147.158Z" fill="#F7B7A1"/>
<path d="M118.705 127.424C126.015 117.556 121.446 118.287 122.543 108.419C123.639 98.5513 134.238 90.1454 134.238 90.1454C134.238 90.1454 124.004 81.7395 131.314 75.7092C138.623 69.4962 145.933 71.1408 145.933 71.1408C145.933 71.1408 152.694 58.7147 165.486 66.2069C176.45 72.6027 170.602 81.1913 166.217 85.0288C170.054 86.4907 178.094 90.1454 181.749 96.5412C186.683 105.13 182.48 106.957 192.896 113.17C203.312 119.566 182.297 129.616 187.962 137.291C193.627 144.966 189.79 149.352 189.79 149.352C189.79 149.352 191.069 142.956 185.221 140.215C179.374 137.474 177.181 132.906 182.297 123.403C187.231 114.084 152.329 122.672 142.826 103.485C141.547 124.865 124.553 125.962 132.776 132.723C140.999 139.484 140.816 144.601 136.431 149.352C132.045 154.103 135.7 159.585 135.7 159.585C135.7 159.585 130.4 157.027 132.776 147.707C134.786 138.571 111.396 137.474 118.705 127.424Z" fill="#081E29"/>
<path d="M172.977 126.51C172.977 126.51 167.86 128.154 162.561 124.865" stroke="#081E29" stroke-width="2.06821" stroke-miterlimit="10" stroke-linecap="round" stroke-linejoin="round"/>
<path d="M142.277 132.722C142.277 132.722 147.577 132.174 151.231 127.24" stroke="#081E29" stroke-width="2.06821" stroke-miterlimit="10" stroke-linecap="round" stroke-linejoin="round"/>
<path d="M150.317 136.743C150.5 137.839 149.769 138.936 148.672 139.301C147.576 139.484 146.479 138.753 146.114 137.657C145.931 136.56 146.662 135.464 147.759 135.098C149.038 134.916 150.134 135.647 150.317 136.743Z" fill="#081E29"/>
<path d="M171.332 132.54C171.515 133.636 170.784 134.733 169.688 135.098C168.591 135.281 167.495 134.55 167.13 133.453C166.947 132.357 167.678 131.261 168.774 130.895C169.871 130.712 170.967 131.443 171.332 132.54Z" fill="#081E29"/>
<path d="M159.456 152.641C159.273 151.91 159.273 151.179 159.273 150.448C159.273 147.707 162.563 146.976 163.659 149.535C164.025 150.266 164.207 150.814 164.39 151.545C164.756 152.641 164.756 153.738 164.573 154.469C164.207 156.661 161.649 157.21 160.37 155.382C160.004 154.651 159.639 153.738 159.456 152.641Z" fill="#081E29"/>
<path d="M157.627 130.896C157.627 130.896 165.119 142.409 160.185 143.323" stroke="#081E29" stroke-width="1.03411" stroke-miterlimit="10" stroke-linecap="round" stroke-linejoin="round"/>
<path d="M177.181 217.695L171.151 182.792C171.151 182.792 166.582 179.686 166.948 171.28C167.313 162.874 164.755 159.036 162.379 156.113C160.552 154.285 163.841 150.996 169.506 163.605C167.679 153.006 162.562 151.361 163.11 150.082C163.841 148.803 168.775 150.448 171.882 159.95C170.603 150.448 164.755 147.341 165.669 145.879C166.948 143.869 174.805 151.179 174.988 160.864C176.633 151.179 169.872 147.159 170.968 144.966C172.064 142.773 180.288 152.641 178.826 166.346C181.201 161.96 178.095 155.93 180.105 155.199C182.115 154.468 185.952 168.356 178.826 181.33C183.029 193.939 191.434 213.126 191.434 213.126L177.181 217.695Z" fill="#F9C4A0"/>
<path d="M207.88 296.638C207.88 296.638 223.961 288.963 218.662 267.034C213.728 246.02 215.373 211.3 192.896 202.894C191.251 202.163 189.241 202.528 187.779 203.625C183.576 206.731 178.46 207.462 175.353 207.645C173.16 207.645 171.333 209.107 170.602 211.117C168.592 216.416 165.668 227.746 168.958 244.01C173.709 267.4 166.582 294.079 183.211 298.465C199.657 302.851 207.88 296.638 207.88 296.638Z" fill="#FF98A8"/>
<path d="M140.086 163.24C140.086 163.24 150.502 175.301 165.852 171.463" stroke="#081E29" stroke-width="1.03411" stroke-miterlimit="10" stroke-linecap="round" stroke-linejoin="round"/>
</g>
</g>
<defs>
<filter id="filter0_dd_7582_6910" x="0.0996094" y="0.929688" width="308.799" height="308.799" filterUnits="userSpaceOnUse" color-interpolation-filters="sRGB">
<feFlood flood-opacity="0" result="BackgroundImageFix"/>
<feColorMatrix in="SourceAlpha" type="matrix" values="0 0 0 0 0 0 0 0 0 0 0 0 0 0 0 0 0 0 127 0" result="hardAlpha"/>
<feOffset dy="16"/>
<feGaussianBlur stdDeviation="12"/>
<feColorMatrix type="matrix" values="0 0 0 0 0.196487 0 0 0 0 0.196487 0 0 0 0 0.279476 0 0 0 0.08 0"/>
<feBlend mode="multiply" in2="BackgroundImageFix" result="effect1_dropShadow_7582_6910"/>
<feColorMatrix in="SourceAlpha" type="matrix" values="0 0 0 0 0 0 0 0 0 0 0 0 0 0 0 0 0 0 127 0" result="hardAlpha"/>
<feOffset dy="12"/>
<feGaussianBlur stdDeviation="6"/>
<feColorMatrix type="matrix" values="0 0 0 0 0.196487 0 0 0 0 0.196487 0 0 0 0 0.279476 0 0 0 0.08 0"/>
<feBlend mode="multiply" in2="effect1_dropShadow_7582_6910" result="effect2_dropShadow_7582_6910"/>
<feBlend mode="normal" in="SourceGraphic" in2="effect2_dropShadow_7582_6910" result="shape"/>
</filter>
</defs>
</svg>
