<svg width="177" height="181" viewBox="0 0 177 181" fill="none" xmlns="http://www.w3.org/2000/svg">
<g clip-path="url(#clip0_7582_6975)">
<path d="M36.9496 120.566C51.2496 143.066 82.4496 153.066 107.25 143.166C132.05 133.266 147.65 104.466 142.45 78.266C138.55 58.466 123.55 41.266 104.55 34.366C84.0496 26.866 55.1496 30.366 42.5496 49.566C28.3496 70.966 22.3496 97.666 36.9496 120.566Z" fill="#FFCBD3"/>
<path d="M142.451 78.3656C139.651 64.2656 131.251 51.4656 119.751 42.7656C121.951 47.2656 123.651 52.0656 124.651 56.9656C129.851 83.1656 114.251 111.966 89.4508 121.866C71.1508 129.166 49.4508 125.666 33.5508 114.266C34.5508 116.466 35.7508 118.566 37.0508 120.666C51.3508 143.166 82.5508 153.166 107.351 143.266C131.951 133.266 147.551 104.566 142.451 78.3656Z" fill="#FF647C"/>
<path d="M106.65 44.9656C115.65 51.7656 132.75 19.2656 132.75 19.2656L138.85 23.8656C138.85 23.8656 112.45 49.3656 121.55 56.1656" fill="#FFCBD3"/>
<path d="M142.45 25.5664C144.35 17.2664 129.95 9.26639 128.05 18.3664C126.25 27.1664 140.25 35.1664 142.45 25.5664Z" fill="#FFCBD3"/>
<path d="M135.55 16.9661C133.95 14.6661 128.75 16.3661 130.55 18.8661C132.35 21.2661 137.35 19.5661 135.55 16.9661Z" fill="#FF647C"/>
<path d="M141.851 20.666C141.851 21.166 141.751 21.666 141.651 22.166C139.851 29.766 130.751 26.266 127.951 20.166C128.151 28.166 140.451 34.566 142.451 25.566C142.851 23.866 142.551 22.166 141.851 20.666Z" fill="#FF647C"/>
<path d="M135.751 85.4668C134.751 96.7668 171.351 94.0668 171.351 94.0668L170.651 101.667C170.651 101.667 135.051 92.7668 134.051 104.067" fill="#FF647C"/>
<path d="M171.151 105.666C179.151 102.966 178.451 86.4658 169.651 89.6658C161.251 92.7658 161.851 108.866 171.151 105.666Z" fill="#FF647C"/>
<path d="M174.75 95.1661C175.85 92.5661 171.65 89.1661 170.45 91.9661C169.45 94.7661 173.45 98.1661 174.75 95.1661Z" fill="#FFCBD3"/>
<path d="M174.951 102.567C174.551 102.867 174.051 103.067 173.551 103.167C166.151 105.667 164.251 96.0668 168.051 90.4668C161.351 94.8668 162.451 108.667 171.151 105.667C172.751 105.067 174.051 103.967 174.951 102.567Z" fill="#FFCBD3"/>
<path d="M119.35 124.266C111.35 128.066 127.85 151.666 127.85 151.666L122.45 154.266C122.45 154.266 114.15 126.766 106.15 130.666" fill="#FF647C"/>
<path d="M120.051 156.166C125.151 160.466 135.851 153.366 130.251 148.766C124.751 144.266 114.151 151.166 120.051 156.166Z" fill="#FF647C"/>
<path d="M128.551 154.367C130.751 154.067 131.351 149.867 128.951 150.267C126.651 150.567 126.051 154.667 128.551 154.367Z" fill="#FFCBD3"/>
<path d="M123.65 157.467C123.35 157.267 122.95 157.067 122.65 156.767C117.95 152.867 123.65 147.667 128.95 147.967C123.25 145.167 114.45 151.467 119.95 156.167C121.05 156.967 122.35 157.367 123.65 157.467Z" fill="#FFCBD3"/>
<path d="M98.1512 138.367C86.8512 138.667 93.6512 174.767 93.6512 174.767L86.0512 174.967C86.0512 174.967 90.7512 138.567 79.4512 138.967" fill="#FF647C"/>
<path d="M82.1494 175.867C85.8494 183.567 102.149 180.867 97.8494 172.567C93.8494 164.567 77.9494 166.967 82.1494 175.867Z" fill="#FF647C"/>
<path d="M85.7503 179.366C85.4503 178.966 85.1503 178.566 84.9503 178.066C81.5503 171.066 90.9503 167.966 96.9503 171.066C91.7503 164.866 78.2503 167.566 82.1503 175.866C82.9503 177.466 84.2503 178.566 85.7503 179.366Z" fill="#FFCBD3"/>
<path d="M61.8508 43.4668C72.3508 39.1668 53.0508 7.8668 53.0508 7.8668L60.0508 4.9668C60.0508 4.9668 68.6508 40.6668 79.0508 36.2668" fill="#FFCBD3"/>
<path d="M63.4503 2.76626C57.2503 -3.13374 43.0503 5.16626 49.8503 11.4663C56.5503 17.5663 70.5503 9.56626 63.4503 2.76626Z" fill="#FFCBD3"/>
<path d="M52.4499 4.36695C49.6499 4.56695 48.5499 9.86695 51.5499 9.56695C54.5499 9.36695 55.6499 4.16695 52.4499 4.36695Z" fill="#FF647C"/>
<path d="M58.8496 0.765625C59.2496 1.06563 59.6496 1.36563 60.0496 1.76562C65.7496 7.16563 58.0496 13.2656 51.3496 12.5656C58.3496 16.4656 70.0496 9.16562 63.4496 2.76562C62.1496 1.56562 60.5496 0.965625 58.8496 0.765625Z" fill="#FF647C"/>
<path d="M37.6496 81.6672C41.4496 70.9672 5.34961 64.5672 5.34961 64.5672L7.84961 57.3672C7.84961 57.3672 40.2496 74.7672 43.8496 63.9672" fill="#FFCBD3"/>
<path d="M8.35032 53.3653C-0.149679 54.0653 -3.44968 70.2653 5.85032 69.2653C14.7503 68.3653 18.1503 52.5653 8.35032 53.3653Z" fill="#FFCBD3"/>
<path d="M2.24999 62.6672C0.549991 64.8672 3.74999 69.2672 5.54999 66.7672C7.34999 64.3672 4.24999 60.0672 2.24999 62.6672Z" fill="#FF647C"/>
<path d="M3.84961 55.4659C4.34961 55.3659 4.84961 55.2659 5.34961 55.1659C13.1496 54.5659 12.6496 64.2659 7.64961 68.8659C15.2496 66.2659 17.5496 52.6659 8.44961 53.3659C6.54961 53.5659 5.04961 54.3659 3.84961 55.4659Z" fill="#FF647C"/>
<path d="M55.3496 127.167C48.7496 117.967 22.8496 143.967 22.8496 143.967L18.3496 137.767C18.3496 137.767 51.0496 121.067 44.3496 111.967" fill="#FF647C"/>
<path d="M15.4502 135.166C11.1502 142.566 22.5502 154.466 27.0502 146.266C31.3502 138.366 20.3502 126.666 15.4502 135.166Z" fill="#FF647C"/>
<path d="M19.5507 145.465C20.4507 148.165 25.8507 147.965 24.8507 145.065C23.8507 142.265 18.5507 142.365 19.5507 145.465Z" fill="#FFCBD3"/>
<path d="M14.5507 140.066C14.6507 139.566 14.8507 139.166 15.1507 138.666C19.0507 131.866 26.8507 137.866 27.6507 144.666C29.8507 136.966 19.9507 127.266 15.3507 135.166C14.5507 136.666 14.3507 138.366 14.5507 140.066Z" fill="#FFCBD3"/>
<path d="M88.1504 37.1664C96.5504 39.0664 98.1504 11.0664 98.1504 11.0664L103.85 12.2664C103.85 12.2664 93.6504 38.3664 102.05 40.1664" fill="#FFCBD3"/>
<path d="M106.95 12.3666C105.65 5.96659 93.1501 4.96659 94.6501 11.8666C96.2501 18.6666 108.45 19.7666 106.95 12.3666Z" fill="#FFCBD3"/>
<path d="M99.351 8.56706C97.551 7.46706 94.451 10.3671 96.551 11.4671C98.551 12.5671 101.551 9.86706 99.351 8.56706Z" fill="#FF647C"/>
<path d="M104.95 9.16602C105.15 9.46602 105.25 9.86602 105.35 10.266C106.55 16.066 99.0504 16.566 95.1504 13.166C97.8504 18.666 108.35 19.166 106.95 12.366C106.75 11.066 105.95 9.96602 104.95 9.16602Z" fill="#FF647C"/>
<path d="M127.551 62.9656C132.251 70.1656 152.951 51.2656 152.951 51.2656L156.151 56.1656C156.151 56.1656 130.651 67.7656 135.451 74.9656" fill="#FF647C"/>
<path d="M158.351 58.2664C161.851 52.7664 153.551 43.2664 149.851 49.3664C146.251 55.2664 154.251 64.5664 158.351 58.2664Z" fill="#FF647C"/>
<path d="M155.55 50.2658C154.95 48.1658 150.85 48.1658 151.45 50.3658C152.15 52.5658 156.25 52.6658 155.55 50.2658Z" fill="#FFCBD3"/>
<path d="M159.151 54.5664C159.051 54.9664 158.851 55.2664 158.651 55.5664C155.451 60.5664 149.751 55.7664 149.351 50.5664C147.451 56.3664 154.651 64.0664 158.351 58.1664C159.051 57.1664 159.251 55.8664 159.151 54.5664Z" fill="#FFCBD3"/>
<path d="M74.7512 138.967C67.6512 134.067 55.7512 159.467 55.7512 159.467L50.9512 156.167C50.9512 156.167 70.1512 135.767 62.9512 130.967" fill="#FF647C"/>
<path d="M48.1496 154.967C46.9496 161.367 58.2496 166.967 59.3496 159.967C60.4496 153.167 49.4496 147.567 48.1496 154.967Z" fill="#FF647C"/>
<path d="M53.7507 161.267C55.0507 162.967 58.9508 161.467 57.4508 159.667C56.0508 157.867 52.2507 159.367 53.7507 161.267Z" fill="#FFCBD3"/>
<path d="M48.75 158.665C48.75 158.265 48.75 157.865 48.85 157.565C49.95 151.665 57.05 153.965 59.35 158.565C58.95 152.465 49.35 148.065 48.05 154.965C47.85 156.265 48.15 157.565 48.75 158.665Z" fill="#FFCBD3"/>
<path d="M131.45 113.266C127.75 121.066 154.65 128.866 154.65 128.866L152.15 134.166C152.15 134.166 129.05 118.366 125.35 126.166" fill="#FF647C"/>
<path d="M151.449 137.166C157.949 137.366 161.749 125.366 154.649 125.266C147.749 125.266 143.949 136.966 151.449 137.166Z" fill="#FF647C"/>
<path d="M156.851 130.566C158.351 128.966 156.251 125.466 154.651 127.166C153.051 128.866 155.051 132.366 156.851 130.566Z" fill="#FFCBD3"/>
<path d="M155.051 135.867C154.651 135.967 154.251 135.967 153.951 135.967C147.951 135.767 149.151 128.467 153.351 125.367C147.351 126.767 144.551 136.867 151.551 137.067C152.751 137.167 153.951 136.667 155.051 135.867Z" fill="#FFCBD3"/>
<path d="M43.25 58.2672C49.25 52.0672 26.25 36.0672 26.25 36.0672L30.25 31.8672C30.25 31.8672 47.15 54.2672 53.15 47.9672" fill="#FFCBD3"/>
<path d="M31.9504 29.2664C25.8504 27.0664 18.3504 37.1664 25.1504 39.4664C31.6504 41.6664 38.9504 31.8664 31.9504 29.2664Z" fill="#FFCBD3"/>
<path d="M24.7498 33.7671C22.8498 34.7671 23.6498 38.8671 25.7498 37.6671C27.6498 36.5671 26.9498 32.5671 24.7498 33.7671Z" fill="#FF647C"/>
<path d="M28.1512 29.2663C28.5512 29.2663 28.8512 29.3663 29.2512 29.5663C34.8512 31.5663 31.3512 38.2663 26.4512 39.7663C32.5512 40.3663 38.5512 31.6663 31.9512 29.2663C30.6512 28.7663 29.3512 28.8663 28.1512 29.2663Z" fill="#FF647C"/>
<path d="M38.95 107.366C37.85 98.766 10.95 106.666 10.95 106.666L10.25 100.866C10.25 100.866 38.25 101.766 37.15 93.166" fill="#FFCBD3"/>
<path d="M9.34961 98.066C3.74961 101.466 7.04961 113.566 13.0496 109.766C18.8496 106.066 15.7496 94.166 9.34961 98.066Z" fill="#FFCBD3"/>
<path d="M8.25089 106.467C7.85089 108.567 11.5509 110.467 11.9509 108.167C12.3509 105.867 8.75089 104.067 8.25089 106.467Z" fill="#FF647C"/>
<path d="M6.95117 100.966C7.25117 100.666 7.55117 100.466 7.85117 100.266C12.9512 97.1662 15.9512 104.066 14.0512 108.866C18.3512 104.466 15.2512 94.3662 9.25117 97.9662C8.15117 98.7662 7.45117 99.7662 6.95117 100.966Z" fill="#FF647C"/>
<path d="M51.2511 64.7661C50.1511 64.5661 49.0511 64.3661 47.9511 64.7661C46.8511 65.1661 46.1511 66.1661 45.7511 67.3661C45.4511 68.4661 45.4511 69.6661 45.6511 70.7661C46.4511 75.0661 49.6511 78.9661 53.7511 80.3661C58.0511 81.9661 64.5511 79.1661 62.8511 73.6661C61.5511 69.2661 55.5511 65.7661 51.2511 64.7661Z" fill="#FF647C"/>
<path d="M114.65 88.8667C115.35 87.5667 115.85 86.0667 115.75 84.6667C115.55 83.1667 114.55 81.7667 113.25 80.9667C111.95 80.1667 110.35 79.7667 108.85 79.6667C102.95 79.1667 96.9497 81.9667 93.6497 86.8667C90.1497 91.9667 91.5497 101.267 99.1497 100.867C105.45 100.567 111.95 94.0667 114.65 88.8667Z" fill="#FF647C"/>
<path d="M55.0509 94.9666C53.3509 94.5666 51.6509 94.2666 50.0509 94.8666C48.3509 95.4666 47.1509 96.9666 46.5509 98.6666C45.9509 100.367 45.9509 102.167 46.1509 103.967C47.0509 110.767 51.8509 116.867 58.1509 119.467C64.7509 122.167 74.9509 118.267 72.6509 109.667C70.6509 102.467 61.6509 96.7666 55.0509 94.9666Z" fill="#FF647C"/>
<path d="M68.4506 85.5655C67.7506 86.1655 67.0506 86.8655 66.7506 87.6655C66.4506 88.5655 66.7506 89.6655 67.2506 90.4655C67.7506 91.2655 68.5506 91.8655 69.4506 92.3655C72.6505 94.1655 76.8505 94.0655 79.9506 92.1655C83.2505 90.1655 84.8506 84.4655 80.3506 82.7655C76.6506 81.2655 71.2506 83.2655 68.4506 85.5655Z" fill="#FF647C"/>
<path d="M80.1494 114.766C80.2494 115.566 80.5494 116.466 81.0494 117.066C81.6494 117.666 82.5494 117.966 83.4494 117.866C84.3494 117.766 85.1494 117.466 85.9494 116.966C88.8494 115.166 90.6494 111.866 90.5494 108.466C90.4494 104.966 86.6494 101.166 83.2494 103.866C80.4494 106.266 79.6494 111.466 80.1494 114.766Z" fill="#FF647C"/>
<path d="M73.6511 45.1657C71.4511 45.5657 69.2511 46.2657 67.7511 48.0657C66.1511 49.8657 65.6511 52.6657 66.0511 55.2657C66.4511 57.8657 67.5511 60.3657 68.9511 62.5657C74.2511 71.0657 83.5511 76.3657 92.4511 75.9657C101.751 75.5657 111.051 64.1657 103.051 54.0657C96.3511 45.8657 82.4511 43.5657 73.6511 45.1657Z" fill="#FF647C"/>
<path d="M43.1504 119.866C46.1504 121.266 49.3504 122.466 52.5504 123.366L44.3504 112.066C46.0504 114.366 45.2504 117.066 43.1504 119.866Z" fill="#FFCBD3"/>
<path d="M122.052 44.666C121.352 46.666 120.452 48.566 120.152 50.566C119.952 51.566 119.952 52.566 120.052 53.566C120.152 54.066 120.352 54.566 120.552 54.966C120.752 55.366 121.152 55.766 121.552 56.166C121.052 55.866 120.652 55.566 120.352 55.166C120.052 54.766 119.752 54.266 119.552 53.666C119.352 53.166 119.352 52.566 119.352 52.066C119.352 51.566 119.352 50.966 119.452 50.466C119.652 49.366 119.952 48.366 120.452 47.466C120.952 46.466 121.452 45.566 122.052 44.666Z" fill="#FF647C"/>
<path d="M106.65 44.9676C107.55 45.4676 108.55 45.7676 109.55 45.6676C110.55 45.5676 111.55 45.2676 112.45 44.7676C113.35 44.2676 114.25 43.7676 115.05 43.1676C115.85 42.4676 116.65 41.8676 117.55 41.2676C116.85 42.0676 116.15 42.8676 115.35 43.5676C114.55 44.2676 113.65 44.8676 112.75 45.3676C111.75 45.8676 110.75 46.1676 109.65 46.1676C109.05 46.1676 108.55 46.0676 108.05 45.8676C107.45 45.6676 107.05 45.3676 106.65 44.9676Z" fill="#FF647C"/>
<path d="M142.45 98.5664C141.55 98.7664 140.65 99.0664 139.85 99.2664C138.95 99.5664 138.15 99.7664 137.35 100.166C136.55 100.566 135.85 101.066 135.25 101.666C134.65 102.266 134.25 103.066 134.05 103.966C133.95 103.066 134.25 102.066 134.85 101.266C135.45 100.466 136.25 99.8664 137.05 99.4664C138.75 98.8664 140.65 98.5664 142.45 98.5664Z" fill="#FF647C"/>
<path d="M135.75 85.4668C135.75 86.4668 136.05 87.2668 136.55 88.0668C137.05 88.7668 137.75 89.4668 138.45 89.9668C139.15 90.4668 140.05 90.9668 140.85 91.3668C141.65 91.7668 142.55 92.1668 143.45 92.5668C142.55 92.4668 141.55 92.2668 140.65 91.8668C139.75 91.5668 138.85 91.1668 138.05 90.5668C137.25 89.9668 136.55 89.2668 136.05 88.3668C135.65 87.4668 135.55 86.3668 135.75 85.4668Z" fill="#FF647C"/>
<path d="M70.75 32.0664C71.95 33.2664 73.05 34.5664 74.45 35.4664C75.15 35.9664 75.85 36.2664 76.65 36.4664C77.45 36.6664 78.25 36.6664 79.05 36.3664C78.35 36.8664 77.45 37.0664 76.55 36.9664C75.65 36.8664 74.85 36.4664 74.05 36.0664C72.65 34.9664 71.55 33.5664 70.75 32.0664Z" fill="#FF647C"/>
<path d="M61.8516 43.4664C62.6516 42.9664 63.3516 42.3664 63.7516 41.5664C64.1516 40.7664 64.4516 39.9664 64.5516 39.0664C64.6516 38.1664 64.6516 37.2664 64.6516 36.3664C64.6516 35.4664 64.5516 34.5664 64.5516 33.5664C65.1516 35.3664 65.4516 37.1664 65.2516 39.1664C65.1516 40.0664 64.8516 41.0664 64.2516 41.8664C63.6516 42.6664 62.7516 43.2664 61.8516 43.4664Z" fill="#FF647C"/>
<path d="M33.3516 67.1664C34.3516 67.1664 35.3516 67.2664 36.3516 67.2664C37.3516 67.2664 38.3516 67.2664 39.2516 67.0664C40.1516 66.9664 41.1516 66.6664 41.9516 66.1664C42.7516 65.6664 43.4516 64.9664 43.8516 64.0664C43.6516 65.0664 43.0516 65.9664 42.2516 66.5664C41.4516 67.1664 40.3516 67.5664 39.3516 67.6664C38.3516 67.8664 37.3516 67.8664 36.3516 67.7664C35.3516 67.6664 34.3516 67.4664 33.3516 67.1664Z" fill="#FF647C"/>
<path d="M37.6516 81.6676C37.8516 80.6676 37.7516 79.6676 37.4516 78.8676C37.1516 77.9676 36.5516 77.1676 35.9516 76.4676C35.3516 75.7676 34.5516 75.1676 33.7516 74.5676C32.9516 73.9676 32.1516 73.3676 31.3516 72.7676C32.2516 73.1676 33.1516 73.5676 34.0516 74.1676C34.9516 74.6676 35.6516 75.3676 36.3516 76.0676C37.0516 76.8676 37.6516 77.6676 37.8516 78.7676C38.2516 79.6676 38.1516 80.7676 37.6516 81.6676Z" fill="#FF647C"/>
<path d="M55.35 127.167C54.55 126.267 53.55 125.767 52.45 125.567C51.35 125.367 50.25 125.567 49.15 125.767C46.95 126.267 44.85 127.167 42.75 128.067C44.65 126.767 46.75 125.667 49.05 125.067C50.15 124.867 51.45 124.667 52.65 124.967C53.75 125.367 54.85 126.167 55.35 127.167Z" fill="#FF647C"/>
<path d="M98.8508 32.7676C99.0508 34.2676 99.1508 35.7676 99.5508 37.0676C99.7508 37.7676 100.051 38.3676 100.451 38.9676C100.851 39.5676 101.451 39.9676 102.151 40.2676C101.351 40.2676 100.651 39.8676 100.051 39.3676C99.4508 38.7676 99.1508 38.0676 98.8508 37.3676C98.6508 36.5676 98.5508 35.8676 98.5508 35.0676C98.5508 34.1676 98.6508 33.4676 98.8508 32.7676Z" fill="#FF647C"/>
<path d="M88.1504 37.1668C88.8504 37.1668 89.5504 37.0668 90.1504 36.7668C90.7504 36.4668 91.2504 35.9668 91.7504 35.4668C92.6504 34.4668 93.3504 33.1668 94.2504 31.9668C94.0504 32.6668 93.8504 33.3668 93.5504 34.0668C93.2504 34.7668 92.8504 35.3668 92.3504 35.9668C91.8504 36.5668 91.2504 37.0668 90.4504 37.2668C89.6504 37.4668 88.8504 37.4668 88.1504 37.1668Z" fill="#FF647C"/>
<path d="M138.75 66.7676C137.75 68.0676 136.75 69.1676 135.95 70.5676C135.55 71.2676 135.25 71.9676 135.15 72.6676C135.05 73.3676 135.15 74.1676 135.45 74.8676C134.85 74.2676 134.55 73.4676 134.65 72.5676C134.65 71.6676 134.95 70.8676 135.35 70.1676C135.75 69.4676 136.25 68.7676 136.85 68.2676C137.45 67.6676 138.05 67.1676 138.75 66.7676Z" fill="#FF647C"/>
<path d="M127.551 62.9672C128.151 63.5672 128.851 63.9672 129.651 64.1672C130.451 64.3672 131.251 64.2672 132.051 64.1672C133.651 63.9672 135.251 63.3672 136.851 62.8672C135.451 63.8672 133.851 64.5672 132.151 64.8672C131.251 64.9672 130.351 64.9672 129.551 64.6672C128.651 64.3672 127.951 63.7672 127.551 62.9672Z" fill="#FF647C"/>
<path d="M61.9512 141.667C62.6512 139.767 63.5512 138.067 63.9512 136.167C64.1512 135.267 64.3512 134.267 64.2512 133.367C64.1512 132.467 63.7512 131.567 62.9512 130.867C63.8512 131.267 64.5512 132.267 64.7512 133.267C64.9512 134.267 64.8512 135.367 64.5512 136.367C64.0512 138.367 63.1512 140.067 61.9512 141.667Z" fill="#FF647C"/>
<path d="M74.7508 138.968C73.9508 138.568 73.0508 138.468 72.1508 138.668C71.3508 138.868 70.5508 139.268 69.7508 139.768C68.2508 140.768 66.9508 142.068 65.5508 143.268C66.5508 141.668 67.7508 140.268 69.3508 139.168C70.1508 138.668 71.0508 138.168 72.0508 138.068C73.0508 137.968 74.0508 138.268 74.7508 138.968Z" fill="#FF647C"/>
<path d="M116.15 138.566C114.85 136.666 113.55 134.766 112.05 133.066C111.25 132.266 110.45 131.466 109.45 130.966C108.45 130.466 107.35 130.266 106.25 130.666C106.75 130.366 107.35 130.166 107.95 130.166C108.25 130.166 108.55 130.166 108.85 130.266C109.15 130.366 109.45 130.466 109.75 130.566C110.85 131.066 111.75 131.866 112.55 132.766C114.15 134.366 115.25 136.466 116.15 138.566Z" fill="#FF647C"/>
<path d="M119.35 124.268C118.45 124.868 117.85 125.868 117.65 126.868C117.45 127.868 117.55 128.968 117.65 130.068C117.95 132.168 118.65 134.268 119.25 136.468C118.15 134.568 117.35 132.468 116.95 130.168C116.75 129.068 116.75 127.868 117.05 126.768C117.45 125.568 118.35 124.568 119.35 124.268Z" fill="#FF647C"/>
<path d="M86.0512 147.167C85.7512 146.267 85.3512 145.367 85.0512 144.467C84.6512 143.567 84.3512 142.767 83.8512 141.967C83.3512 141.167 82.7512 140.467 82.0512 139.967C81.3512 139.467 80.4512 139.067 79.4512 138.967C80.3512 138.767 81.4512 138.967 82.2512 139.467C83.1512 139.967 83.7512 140.767 84.3512 141.567C85.3512 143.267 85.8512 145.267 86.0512 147.167Z" fill="#FF647C"/>
<path d="M98.1508 138.366C97.2508 138.566 96.3508 138.866 95.6508 139.466C94.9508 140.066 94.4508 140.766 94.0508 141.566C93.6508 142.366 93.2508 143.266 92.9508 144.066C92.6508 144.966 92.3508 145.866 92.0508 146.766C92.0508 145.866 92.1508 144.866 92.3508 143.966C92.5508 143.066 92.8508 142.166 93.3508 141.266C93.8508 140.366 94.4508 139.566 95.2508 139.066C96.1508 138.466 97.2508 138.266 98.1508 138.366Z" fill="#FF647C"/>
<path d="M131.352 124.166C130.152 124.266 129.052 124.266 128.052 124.466C127.552 124.566 127.052 124.766 126.552 125.066C126.052 125.366 125.652 125.766 125.352 126.166C125.452 125.566 125.752 125.066 126.252 124.666C126.752 124.266 127.252 123.966 127.852 123.866C128.452 123.766 129.052 123.666 129.652 123.766C130.252 123.766 130.852 123.966 131.352 124.166Z" fill="#FF647C"/>
<path d="M131.452 113.268C131.252 113.868 131.252 114.568 131.352 115.068C131.452 115.668 131.652 116.168 132.052 116.768C132.652 117.868 133.552 118.768 134.352 119.768C133.752 119.468 133.252 119.068 132.752 118.668C132.252 118.268 131.852 117.768 131.452 117.168C131.152 116.568 130.852 115.868 130.852 115.268C130.852 114.468 131.052 113.768 131.452 113.268Z" fill="#FF647C"/>
<path d="M44.6504 46.666C46.0504 47.266 47.4504 48.066 48.8504 48.466C49.5504 48.666 50.2504 48.766 51.0504 48.766C51.7504 48.666 52.4504 48.466 53.1504 47.966C52.7504 48.666 51.9504 49.066 51.1504 49.266C50.3504 49.466 49.4504 49.366 48.7504 49.066C47.9504 48.866 47.2504 48.466 46.5504 48.066C45.8504 47.666 45.2504 47.166 44.6504 46.666Z" fill="#FF647C"/>
<path d="M43.2508 58.2668C43.6508 57.6668 43.8508 56.9668 43.9508 56.3668C44.0508 55.6668 43.9508 55.0668 43.7508 54.3668C43.3508 53.0668 42.6508 51.7668 42.0508 50.4668C42.5508 50.9668 43.0508 51.5668 43.4508 52.1668C43.8508 52.7668 44.1508 53.4668 44.3508 54.1668C44.5508 54.8668 44.6508 55.6668 44.4508 56.4668C44.2508 57.1668 43.8508 57.7668 43.2508 58.2668Z" fill="#FF647C"/>
<path d="M29.0508 99.4676C30.7508 98.7676 32.5508 98.1676 34.1508 97.3676C34.9508 96.9676 35.6508 96.4676 36.2508 95.7676C36.8508 95.0676 37.1508 94.2676 37.1508 93.2676C37.4508 94.1676 37.2508 95.2676 36.6508 96.0676C36.0508 96.8676 35.2508 97.4676 34.4508 97.9676C32.8508 98.8676 30.9508 99.2676 29.0508 99.4676Z" fill="#FF647C"/>
<path d="M38.9504 107.366C38.7504 106.466 38.1504 105.766 37.4504 105.266C36.7504 104.766 35.9504 104.466 35.0504 104.266C33.3504 103.766 31.5504 103.666 29.6504 103.466C31.4504 103.166 33.3504 103.166 35.1504 103.666C36.0504 103.966 36.9504 104.266 37.6504 104.966C38.5504 105.466 39.0504 106.466 38.9504 107.366Z" fill="#FF647C"/>
<path d="M39.0508 124.266C40.6508 122.466 42.3508 120.666 43.5508 118.666C44.1508 117.666 44.6508 116.566 44.9508 115.466C45.1508 114.366 44.9508 113.166 44.3508 112.066C45.1508 112.966 45.6508 114.266 45.4508 115.566C45.3508 116.866 44.7508 117.966 44.1508 119.066C42.8508 121.066 41.0508 122.766 39.0508 124.266Z" fill="#FF647C"/>
<path d="M93.051 178.267C95.751 179.067 98.651 174.467 95.751 173.667C92.851 172.867 89.951 177.367 93.051 178.267Z" fill="#FFCBD3"/>
</g>
<defs>
<clipPath id="clip0_7582_6975">
<rect width="176.5" height="179.7" fill="white" transform="translate(0.25 0.765625)"/>
</clipPath>
</defs>
</svg>
