<svg width="309" height="310" viewBox="0 0 309 310" fill="none" xmlns="http://www.w3.org/2000/svg">
<g filter="url(#filter0_dd_7582_6859)">
<mask id="mask0_7582_6859" style="mask-type:alpha" maskUnits="userSpaceOnUse" x="24" y="8" width="261" height="262">
<circle cx="154.499" cy="139.329" r="130.4" fill="#C4C4C4"/>
</mask>
<g mask="url(#mask0_7582_6859)">
<circle cx="154.499" cy="139.329" r="130.4" fill="white"/>
<path d="M230.012 261.315C229.464 251.447 221.606 245.6 217.586 237.194C211.921 225.316 221.971 215.265 208.997 203.57C196.023 192.058 202.601 186.758 194.926 177.439C187.069 168.119 171.171 170.86 171.171 170.86H138.461C138.461 170.86 122.563 168.119 114.705 177.439C106.847 186.758 113.609 192.058 100.634 203.57C87.6601 215.083 97.7106 225.133 92.0457 237.194C89.6701 242.128 85.8327 245.965 83.0916 250.716C69.9346 272.096 90.0356 298.959 113.06 298.959C113.06 298.959 196.571 298.959 196.754 298.959C205.891 298.959 214.845 295.121 221.24 288.543C228.002 281.233 230.56 271 230.012 261.315Z" fill="#FF647C"/>
<path d="M154.542 154.597L138.826 152.039C138.826 152.039 138.826 172.688 138.826 187.124C138.826 201.012 153.445 204.302 154.542 204.667C155.638 204.484 170.074 201.195 170.074 187.307C170.074 172.871 170.074 152.222 170.074 152.222L154.542 154.597Z" fill="#F9D3B7"/>
<path d="M154.542 134.861L138.826 132.303C138.826 132.303 138.826 152.952 138.826 167.388C138.826 170.86 139.74 173.784 141.202 176.159C147.049 186.21 162.034 186.21 167.881 176.159C169.343 173.784 170.257 170.86 170.257 167.388C170.257 152.952 170.257 132.303 170.257 132.303L154.542 134.861Z" fill="#F7B7A1"/>
<path d="M128.228 131.938C128.228 131.938 127.497 129.197 121.833 129.197C116.168 129.197 117.995 148.019 128.228 148.019C138.279 148.202 134.441 134.679 128.228 131.938Z" fill="#F4C19F"/>
<path d="M180.125 131.938C180.125 131.938 180.856 129.197 186.521 129.197C192.186 129.197 190.359 148.019 180.125 148.019C169.892 148.202 173.73 134.679 180.125 131.938Z" fill="#F4C19F"/>
<path d="M154.541 173.785C139.191 173.785 126.582 161.176 126.582 145.826V124.629C126.582 109.279 139.191 96.6699 154.541 96.6699C169.891 96.6699 182.499 109.279 182.499 124.629V145.826C182.499 161.176 169.891 173.785 154.541 173.785Z" fill="url(#paint0_linear_7582_6859)"/>
<path d="M178.297 144.363C178.297 135.775 167.698 138.516 154.541 138.516C141.384 138.516 130.785 135.775 130.785 144.363C130.785 152.952 141.384 145.277 154.541 145.277C167.698 145.277 178.297 152.952 178.297 144.363Z" fill="#F7B7A1"/>
<path d="M192.186 121.522C183.049 113.299 187.8 113.116 184.693 103.614C181.587 94.1115 169.709 88.0812 169.709 88.0812C169.709 88.0812 178.115 77.848 169.709 73.2796C161.303 68.7112 154.542 71.6349 154.542 71.6349C154.542 71.6349 145.405 60.8535 134.441 70.7213C124.939 79.3099 132.431 86.2539 137.365 89.3604C133.893 91.5532 126.583 96.8526 124.39 103.797C121.284 113.299 125.852 114.03 116.715 122.436C107.579 130.659 130.421 136.506 126.4 145.095C122.38 153.684 126.949 157.156 126.949 157.156C126.949 157.156 124.39 151.125 129.69 147.288C134.806 143.45 136.085 138.516 129.324 130.293C122.563 122.07 158.562 123.715 164.044 102.883C169.526 123.715 186.338 121.339 179.577 129.562C172.815 137.786 173.912 142.719 179.211 146.557C184.328 150.394 181.952 156.425 181.952 156.425C181.952 156.425 186.521 152.953 182.501 144.364C178.48 135.775 201.14 129.745 192.186 121.522Z" fill="#081E29"/>
<path d="M138.826 131.207C138.826 131.207 144.126 131.756 148.694 127.553" stroke="#081E29" stroke-width="2.06821" stroke-miterlimit="10" stroke-linecap="round" stroke-linejoin="round"/>
<path d="M170.075 131.207C170.075 131.207 164.775 131.756 160.207 127.553" stroke="#081E29" stroke-width="2.06821" stroke-miterlimit="10" stroke-linecap="round" stroke-linejoin="round"/>
<path d="M154.542 132.486C154.542 132.486 149.425 145.278 154.542 145.278" stroke="#081E29" stroke-width="1.03411" stroke-miterlimit="10" stroke-linecap="round" stroke-linejoin="round"/>
<path d="M145.77 136.324C145.77 137.42 144.857 138.517 143.578 138.517C142.481 138.517 141.385 137.603 141.385 136.324C141.385 135.227 142.298 134.131 143.578 134.131C144.857 134.131 145.77 135.045 145.77 136.324Z" fill="#081E29"/>
<path d="M165.14 138.517C166.351 138.517 167.333 137.535 167.333 136.324C167.333 135.113 166.351 134.131 165.14 134.131C163.929 134.131 162.947 135.113 162.947 136.324C162.947 137.535 163.929 138.517 165.14 138.517Z" fill="#081E29"/>
<path d="M149.791 151.674C149.791 151.674 154.359 150.943 159.111 152.77" stroke="#081E29" stroke-width="1.03411" stroke-miterlimit="10" stroke-linecap="round" stroke-linejoin="round"/>
<path d="M178.115 136.873C179.76 136.873 181.039 135.594 181.039 133.949V101.422C181.039 99.7772 179.76 98.498 178.115 98.498C176.471 98.498 175.191 99.7772 175.191 101.422V133.949C175.191 135.411 176.471 136.873 178.115 136.873Z" fill="#F7EEEA"/>
<path d="M173.182 134.496C173.182 137.237 175.374 139.43 178.116 139.43C180.857 139.43 183.049 137.237 183.049 134.496C183.049 131.755 180.857 129.562 178.116 129.562C175.374 129.562 173.182 131.755 173.182 134.496Z" fill="#F7EEEA"/>
<path d="M175.191 134.498C175.191 136.143 176.471 137.422 178.115 137.422C179.76 137.422 181.039 136.143 181.039 134.498C181.039 132.853 179.76 131.574 178.115 131.574C176.471 131.574 175.191 132.853 175.191 134.498Z" fill="#CE4B59"/>
<path d="M179.213 101.787C179.213 101.056 178.664 100.508 177.933 100.508C177.203 100.508 176.654 101.056 176.654 101.787V108H179.03V101.787H179.213Z" fill="#DBD8D8"/>
<path d="M176.838 108V133.583C176.838 134.314 177.386 134.862 178.117 134.862C178.848 134.862 179.396 134.314 179.396 133.583V108H176.838Z" fill="#CE4B59"/>
<path d="M178.299 103.98H181.04" stroke="#081E29" stroke-width="0.93287" stroke-miterlimit="10" stroke-linecap="round" stroke-linejoin="round"/>
<path d="M178.299 113.848H181.04" stroke="#081E29" stroke-width="0.93287" stroke-miterlimit="10" stroke-linecap="round" stroke-linejoin="round"/>
<path d="M179.76 105.99H181.039" stroke="#081E29" stroke-width="0.93287" stroke-miterlimit="10" stroke-linecap="round" stroke-linejoin="round"/>
<path d="M179.76 108H181.039" stroke="#081E29" stroke-width="0.93287" stroke-miterlimit="10" stroke-linecap="round" stroke-linejoin="round"/>
<path d="M179.76 111.838H181.039" stroke="#081E29" stroke-width="0.93287" stroke-miterlimit="10" stroke-linecap="round" stroke-linejoin="round"/>
<path d="M179.76 110.01H181.039" stroke="#081E29" stroke-width="0.93287" stroke-miterlimit="10" stroke-linecap="round" stroke-linejoin="round"/>
<path d="M178.299 123.715H181.04" stroke="#081E29" stroke-width="0.93287" stroke-miterlimit="10" stroke-linecap="round" stroke-linejoin="round"/>
<path d="M179.76 115.857H181.039" stroke="#081E29" stroke-width="0.93287" stroke-miterlimit="10" stroke-linecap="round" stroke-linejoin="round"/>
<path d="M179.76 117.867H181.039" stroke="#081E29" stroke-width="0.93287" stroke-miterlimit="10" stroke-linecap="round" stroke-linejoin="round"/>
<path d="M179.76 121.705H181.039" stroke="#081E29" stroke-width="0.93287" stroke-miterlimit="10" stroke-linecap="round" stroke-linejoin="round"/>
<path d="M179.76 119.695H181.039" stroke="#081E29" stroke-width="0.93287" stroke-miterlimit="10" stroke-linecap="round" stroke-linejoin="round"/>
<path d="M168.612 169.947C168.612 169.947 154.724 177.988 140.836 170.13" stroke="#081E29" stroke-width="1.03411" stroke-miterlimit="10" stroke-linecap="round" stroke-linejoin="round"/>
</g>
</g>
<defs>
<filter id="filter0_dd_7582_6859" x="0.0996094" y="0.929688" width="308.799" height="308.799" filterUnits="userSpaceOnUse" color-interpolation-filters="sRGB">
<feFlood flood-opacity="0" result="BackgroundImageFix"/>
<feColorMatrix in="SourceAlpha" type="matrix" values="0 0 0 0 0 0 0 0 0 0 0 0 0 0 0 0 0 0 127 0" result="hardAlpha"/>
<feOffset dy="16"/>
<feGaussianBlur stdDeviation="12"/>
<feColorMatrix type="matrix" values="0 0 0 0 0.196487 0 0 0 0 0.196487 0 0 0 0 0.279476 0 0 0 0.08 0"/>
<feBlend mode="multiply" in2="BackgroundImageFix" result="effect1_dropShadow_7582_6859"/>
<feColorMatrix in="SourceAlpha" type="matrix" values="0 0 0 0 0 0 0 0 0 0 0 0 0 0 0 0 0 0 127 0" result="hardAlpha"/>
<feOffset dy="12"/>
<feGaussianBlur stdDeviation="6"/>
<feColorMatrix type="matrix" values="0 0 0 0 0.196487 0 0 0 0 0.196487 0 0 0 0 0.279476 0 0 0 0.08 0"/>
<feBlend mode="multiply" in2="effect1_dropShadow_7582_6859" result="effect2_dropShadow_7582_6859"/>
<feBlend mode="normal" in="SourceGraphic" in2="effect2_dropShadow_7582_6859" result="shape"/>
</filter>
<linearGradient id="paint0_linear_7582_6859" x1="154.556" y1="150.628" x2="154.556" y2="94.6406" gradientUnits="userSpaceOnUse">
<stop offset="0.2211" stop-color="#F9D3B7"/>
<stop offset="0.8593" stop-color="#D26C5E"/>
</linearGradient>
</defs>
</svg>
